<svg width="30" height="31" viewBox="0 0 30 31" fill="none" xmlns="http://www.w3.org/2000/svg">
<g clip-path="url(#clip0_1_118)">
<path d="M15.7 15.2203C15.6333 15.087 15.5167 15.0203 15.35 15.0203C15.1833 15.0203 15.0333 15.0703 14.9 15.1703C14.7667 15.2703 14.7 15.4036 14.7 15.5703C14.7 15.737 14.7667 15.887 14.9 16.0203C15.0333 16.1536 15.1833 16.2203 15.35 16.2203C15.5167 16.2203 15.65 16.1536 15.75 16.0203C15.85 15.887 15.9 15.737 15.9 15.5703C15.9 15.4036 15.8333 15.287 15.7 15.2203ZM23.2 7.72029C22.6 7.12029 21.9 6.82029 21.1 6.82029C20.3 6.82029 19.6167 7.12029 19.05 7.72029C18.4833 8.32029 18.2 9.02029 18.2 9.82029C18.2 10.6203 18.4833 11.3036 19.05 11.8703C19.6167 12.437 20.3 12.7203 21.1 12.7203C21.9 12.7203 22.6 12.437 23.2 11.8703C23.8 11.3036 24.1 10.6203 24.1 9.82029C24.1 9.02029 23.8 8.32029 23.2 7.72029ZM22.4 11.0203C22.0667 11.3536 21.65 11.5203 21.15 11.5203C20.65 11.5203 20.2333 11.3536 19.9 11.0203C19.5667 10.687 19.4 10.2703 19.4 9.77029C19.4 9.27029 19.5667 8.85362 19.9 8.52029C20.2333 8.18695 20.65 8.02029 21.15 8.02029C21.65 8.02029 22.0667 8.18695 22.4 8.52029C22.7333 8.85362 22.9 9.27029 22.9 9.77029C22.9 10.2703 22.7333 10.687 22.4 11.0203ZM29.8 1.12029C29.6667 0.986954 29.5333 0.920288 29.4 0.920288C28.8 0.920288 28.0667 0.986954 27.2 1.12029C25.5333 1.38696 23.9333 1.82029 22.4 2.42029C19.3333 3.48695 16.8333 4.98695 14.9 6.92029C14.5 7.32029 14.1 7.75362 13.7 8.22029C12.1 7.35362 10.6 7.28695 9.2 8.02029C8.13333 8.55362 7.26667 9.50362 6.6 10.8703C5.93333 12.237 5.6 13.5203 5.6 14.7203C5.6 14.987 5.73333 15.187 6 15.3203H6.2C6.4 15.3203 6.53333 15.287 6.6 15.2203C7.13333 14.687 7.73333 14.3536 8.4 14.2203C8.86667 14.087 9.3 14.0536 9.7 14.1203L9.9 14.3203C9.5 15.3203 9.2 16.287 9 17.2203C8.86667 17.5536 8.86667 17.887 9 18.2203C8.46667 18.487 7.96667 18.8536 7.5 19.3203C6.83333 19.9203 6.33333 20.987 6 22.5203C5.8 23.2536 5.66667 23.9536 5.6 24.6203C5.6 24.8203 5.66667 24.987 5.8 25.1203C5.93333 25.2536 6.06667 25.3203 6.2 25.3203H6.3C6.96667 25.2536 7.66667 25.1203 8.4 24.9203C9.93333 24.587 11 24.087 11.6 23.4203C12.0667 22.9536 12.4333 22.4536 12.7 21.9203C13.0333 22.0536 13.3667 22.0536 13.7 21.9203C14.6333 21.7203 15.6 21.4203 16.6 21.0203L16.8 21.2203C16.8667 21.6203 16.8333 22.0536 16.7 22.5203C16.5667 23.187 16.2333 23.787 15.7 24.3203C15.5667 24.5203 15.55 24.737 15.65 24.9703C15.75 25.2036 15.9333 25.3203 16.2 25.3203C17.4 25.3203 18.6833 24.987 20.05 24.3203C21.4167 23.6536 22.3667 22.787 22.9 21.7203C23.6333 20.3203 23.5667 18.8203 22.7 17.2203C23.1667 16.8203 23.6 16.4203 24 16.0203C25.9333 14.087 27.4333 11.587 28.5 8.52029C29.1 6.98695 29.5333 5.38696 29.8 3.72029C29.9333 2.85362 30 2.12029 30 1.52029C30 1.38696 29.9333 1.25362 29.8 1.12029ZM6.9 13.5203C7.1 12.587 7.46667 11.7036 8 10.8703C8.53333 10.037 9.13333 9.42029 9.8 9.02029C10.7333 8.48695 11.7667 8.55362 12.9 9.22029C11.9667 10.4203 11.1667 11.7536 10.5 13.2203H10.4C10.3333 13.087 10.2333 13.0203 10.1 13.0203C9.83333 12.9536 9.5 12.9203 9.1 12.9203C8.3 12.987 7.56667 13.187 6.9 13.5203ZM10.8 22.6203C10.1333 23.287 8.83333 23.7536 6.9 24.0203C7.16667 22.087 7.63333 20.787 8.3 20.1203C8.76667 19.6536 9.26667 19.3203 9.8 19.1203L11.8 21.1203C11.6 21.6536 11.2667 22.1536 10.8 22.6203ZM13.4 20.8203C13.2667 20.887 13.1 20.8203 12.9 20.6203L10.3 18.0203C10.1 17.8203 10.0333 17.6536 10.1 17.5203C10.3 16.787 10.5333 16.0203 10.8 15.2203L15.7 20.1203C14.9 20.387 14.1333 20.6203 13.4 20.8203ZM21.9 21.1203C21.5 21.787 20.8833 22.387 20.05 22.9203C19.2167 23.4536 18.3333 23.8203 17.4 24.0203C17.6667 23.487 17.85 22.9203 17.95 22.3203C18.05 21.7203 18.0333 21.187 17.9 20.7203C17.9 20.6536 17.8333 20.587 17.7 20.5203V20.4203C19.1667 19.7536 20.5 18.9536 21.7 18.0203C22.3667 19.1536 22.4333 20.187 21.9 21.1203ZM23.2 15.2203C22.6667 15.7536 22.1 16.2536 21.5 16.7203C20.1 17.8536 18.5333 18.8203 16.8 19.6203L11.3 14.1203C12.1 12.387 13.0667 10.8203 14.2 9.42029C14.6667 8.82029 15.1667 8.25362 15.7 7.72029C17.5 5.98695 19.7333 4.62029 22.4 3.62029L27.3 8.52029C26.3 11.187 24.9333 13.4203 23.2 15.2203ZM27.7 7.32029L23.6 3.22029C25.3333 2.68695 27.0667 2.32029 28.8 2.12029C28.6 3.85362 28.2333 5.58695 27.7 7.32029ZM14.1 25.1203C13.9667 24.987 13.8167 24.9203 13.65 24.9203C13.4833 24.9203 13.3667 24.987 13.3 25.1203L11.6 26.8203C11.4667 26.887 11.4 27.0036 11.4 27.1703C11.4 27.337 11.4667 27.487 11.6 27.6203C11.7333 27.7536 11.8833 27.8203 12.05 27.8203C12.2167 27.8203 12.3333 27.7536 12.4 27.6203L14.1 25.9203C14.2333 25.8536 14.3 25.737 14.3 25.5703C14.3 25.4036 14.2333 25.2536 14.1 25.1203ZM5.8 16.8203C5.66667 16.687 5.51667 16.6203 5.35 16.6203C5.18333 16.6203 5.06667 16.687 5 16.8203L3.3 18.5203C3.16667 18.587 3.1 18.7036 3.1 18.8703C3.1 19.037 3.16667 19.187 3.3 19.3203C3.43333 19.4536 3.58333 19.5203 3.75 19.5203C3.91667 19.5203 4.03333 19.4536 4.1 19.3203L5.8 17.6203C5.93333 17.5536 6 17.437 6 17.2703C6 17.1036 5.93333 16.9536 5.8 16.8203ZM9.9 25.9203C9.83333 25.8536 9.71667 25.8203 9.55 25.8203C9.38333 25.8203 9.23333 25.8536 9.1 25.9203L5.1 29.9203C5.03333 30.0536 5 30.2036 5 30.3703C5 30.537 5.05 30.6703 5.15 30.7703C5.25 30.8703 5.38333 30.9203 5.55 30.9203C5.71667 30.9203 5.86667 30.8536 6 30.7203L9.9 26.8203C10.0333 26.687 10.1 26.537 10.1 26.3703C10.1 26.2036 10.0333 26.0536 9.9 25.9203ZM5.3 25.9203C5.16667 25.8536 5.01667 25.8203 4.85 25.8203C4.68333 25.8203 4.53333 25.8536 4.4 25.9203L0.5 29.9203C0.366667 30.0536 0.3 30.2036 0.3 30.3703C0.3 30.537 0.35 30.6703 0.45 30.7703C0.55 30.8703 0.683333 30.9203 0.85 30.9203C1.01667 30.9203 1.16667 30.8536 1.3 30.7203L5.3 26.8203C5.36667 26.687 5.4 26.537 5.4 26.3703C5.4 26.2036 5.36667 26.0536 5.3 25.9203ZM5 21.0203C4.86667 20.887 4.71667 20.8203 4.55 20.8203C4.38333 20.8203 4.23333 20.887 4.1 21.0203L0.2 24.9203C0.0666667 25.0536 0 25.2036 0 25.3703C0 25.537 0.05 25.6703 0.15 25.7703C0.25 25.8703 0.383333 25.9203 0.55 25.9203C0.716667 25.9203 0.866667 25.887 1 25.8203L5 21.8203C5.06667 21.687 5.1 21.537 5.1 21.3703C5.1 21.2036 5.06667 21.087 5 21.0203ZM18.2 12.7203C18.1333 12.587 18.0167 12.5203 17.85 12.5203C17.6833 12.5203 17.5333 12.587 17.4 12.7203L16.6 13.5203C16.4667 13.6536 16.4 13.8036 16.4 13.9703C16.4 14.137 16.45 14.2703 16.55 14.3703C16.65 14.4703 16.7833 14.5203 16.95 14.5203C17.1167 14.5203 17.2667 14.4536 17.4 14.3203L18.2 13.5203C18.3333 13.387 18.4 13.237 18.4 13.0703C18.4 12.9036 18.3333 12.787 18.2 12.7203Z" fill="white"/>
</g>
<defs>
<clipPath id="clip0_1_118">
<rect width="30" height="30" fill="white" transform="matrix(1 0 0 -1 0 30.9203)"/>
</clipPath>
</defs>
</svg>
